<svg width="11" height="10" viewBox="0 0 11 10" fill="none" xmlns="http://www.w3.org/2000/svg">
<path fill-rule="evenodd" clip-rule="evenodd" d="M9.67336 3.42903C9.96093 3.5183 10.0088 4.17502 9.78041 4.89651C9.55207 5.618 9.13353 6.13026 8.84625 6.04127C8.55897 5.95228 8.51085 5.29415 8.74033 4.57379C8.96982 3.85342 9.38693 3.34004 9.6745 3.42903H9.67336Z" fill="#12282E" stroke="#12282E" stroke-width="0.0211209" stroke-miterlimit="10"/>
<path fill-rule="evenodd" clip-rule="evenodd" d="M8.23984 0.974824C8.52712 1.06409 8.16382 3.01933 7.4281 5.34207C6.69239 7.6648 5.86215 9.47585 5.57543 9.38686C5.28872 9.29787 5.65145 7.34236 6.38717 5.01962C7.12288 2.69688 7.95313 0.885834 8.23984 0.974824Z" fill="#12282E" stroke="#12282E" stroke-width="0.0211209" stroke-miterlimit="10"/>
<path fill-rule="evenodd" clip-rule="evenodd" d="M6.30671 0.0985503C6.59428 0.18754 6.33746 1.80709 5.733 3.71558C5.12854 5.62406 4.40535 7.09886 4.11779 7.01044C3.83022 6.92201 4.08732 5.30218 4.69178 3.39341C5.29624 1.48465 6.01943 0.00956091 6.30671 0.0985503Z" fill="#12282E" stroke="#12282E" stroke-width="0.0211209" stroke-miterlimit="10"/>
<path fill-rule="evenodd" clip-rule="evenodd" d="M4.08715 0.134375C4.37472 0.223364 4.18794 1.62129 3.67032 3.25633C3.1527 4.89137 2.49927 6.14482 2.2117 6.05471C1.92414 5.96459 2.11091 4.56779 2.62882 2.93247C3.14672 1.29715 3.79958 0.0451038 4.08715 0.134375Z" fill="#12282E" stroke="#12282E" stroke-width="0.0211209" stroke-miterlimit="10"/>
<path fill-rule="evenodd" clip-rule="evenodd" d="M8.91439 6.13604C8.88281 6.13606 8.85142 6.13131 8.82129 6.12196C8.64647 6.06789 8.53657 5.86513 8.51464 5.55085C8.49358 5.26332 8.54483 4.90764 8.65843 4.54887C8.88108 3.84484 9.27997 3.33484 9.60655 3.33484C9.63811 3.33473 9.66951 3.33938 9.69965 3.34864C9.87447 3.40271 9.98437 3.60575 10.0063 3.91975C10.0271 4.20728 9.97611 4.56323 9.86251 4.92201C9.63957 5.62547 9.24097 6.13604 8.91439 6.13604Z" fill="#12282E" stroke="#12282E" stroke-width="0.0211209" stroke-miterlimit="10"/>
<path fill-rule="evenodd" clip-rule="evenodd" d="M5.59665 9.47386C5.58072 9.47393 5.56487 9.47155 5.54967 9.46682C5.43408 9.43105 5.38539 9.28433 5.39194 8.99118C5.39706 8.75547 5.43806 8.43049 5.51351 8.02496C5.66726 7.19674 5.94856 6.12042 6.30532 4.99369C6.65325 3.8954 7.03449 2.87174 7.37957 2.10998C7.93335 0.886659 8.14034 0.886659 8.21835 0.886659C8.23419 0.88659 8.24994 0.888966 8.26504 0.893699C8.38064 0.929464 8.42933 1.07618 8.42306 1.36934C8.41766 1.60505 8.37694 1.93003 8.30149 2.33555C8.14774 3.16378 7.86644 4.2401 7.5094 5.36683C7.16176 6.46511 6.78023 7.48877 6.43544 8.25054C5.88137 9.47386 5.67466 9.47386 5.59665 9.47386Z" fill="#12282E" stroke="#12282E" stroke-width="0.0211209" stroke-miterlimit="10"/>
<path fill-rule="evenodd" clip-rule="evenodd" d="M4.14416 7.09846C4.12666 7.09854 4.10927 7.09588 4.09262 7.09057C3.96991 7.05255 3.82556 6.88471 3.98642 5.87091C4.09547 5.18377 4.31727 4.29388 4.61081 3.36794C4.97867 2.20657 5.80094 0.0105596 6.28126 0.0105596C6.29873 0.0105166 6.3161 0.0130799 6.3328 0.0181631C6.45551 0.0561808 6.60015 0.225148 6.43928 1.23895C6.33024 1.92609 6.10844 2.81598 5.81489 3.74164C5.44704 4.90216 4.62448 7.09846 4.14416 7.09846Z" fill="#12282E" stroke="#12282E" stroke-width="0.0211209" stroke-miterlimit="10"/>
<path fill-rule="evenodd" clip-rule="evenodd" d="M2.24141 6.14503C2.22209 6.14519 2.20288 6.14234 2.18446 6.13658C2.11442 6.11462 1.89974 6.04844 2.03185 5.06364C2.11129 4.46916 2.29379 3.70402 2.54435 2.90875C2.98111 1.52885 3.63967 0.045596 4.05336 0.045596C4.07265 0.0454935 4.09184 0.0482462 4.11031 0.0537628C4.18063 0.0757285 4.39503 0.141907 4.26292 1.12671C4.18348 1.72119 4.00126 2.48661 3.75042 3.28188C3.31452 4.66066 2.65567 6.14503 2.24141 6.14503Z" fill="#12282E" stroke="#12282E" stroke-width="0.0211209" stroke-miterlimit="10"/>
<path fill-rule="evenodd" clip-rule="evenodd" d="M0.357934 5.19385C0.331464 5.19368 0.305169 5.1896 0.279921 5.18174C-0.111 5.06036 -0.0332713 4.08345 0.238351 3.22622C0.48919 2.43461 0.942179 1.63342 1.32256 1.63342C1.34901 1.63341 1.3753 1.6373 1.40058 1.64497C1.7915 1.76634 1.71377 2.74326 1.44215 3.60048C1.19131 4.39322 0.73832 5.19385 0.357934 5.19385Z" fill="#12282E" stroke="#12282E" stroke-width="0.0211209" stroke-miterlimit="10"/>
<path fill-rule="evenodd" clip-rule="evenodd" d="M1.37545 1.72463C1.66302 1.81362 1.65647 2.64184 1.36122 3.57426C1.06596 4.50668 0.592474 5.19043 0.306046 5.10116C0.0196177 5.01189 0.0250274 4.18395 0.320282 3.25153C0.615536 2.31912 1.08903 1.63536 1.37545 1.72463Z" fill="#12282E" stroke="#12282E" stroke-width="0.0211209" stroke-miterlimit="10"/>
</svg>
