<svg width="395" height="390" viewBox="0 0 395 390" fill="none" xmlns="http://www.w3.org/2000/svg">
<path fill-rule="evenodd" clip-rule="evenodd" d="M378.355 151.531C389.17 155.65 389.677 181.947 379.484 210.278C369.29 238.61 352.258 258.236 341.442 254.141C330.628 250.022 330.12 223.725 340.314 195.394C350.507 167.062 367.539 147.436 378.355 151.531Z" fill="#231F20"/>
<path fill-rule="evenodd" clip-rule="evenodd" d="M328.471 50.853C339.285 54.9721 321.459 132.251 288.63 223.5C255.824 314.749 220.434 385.381 209.619 381.262C198.804 377.142 216.631 299.863 249.46 208.615C282.289 117.367 317.656 46.7339 328.471 50.853Z" fill="#231F20"/>
<path fill-rule="evenodd" clip-rule="evenodd" d="M256.329 12.1619C267.144 16.2811 254.058 80.3851 227.093 155.331C200.127 230.302 169.502 287.735 158.687 283.616C147.873 279.497 160.958 215.393 187.923 140.447C214.888 65.5006 245.513 8.06707 256.329 12.1619Z" fill="#231F20"/>
<path fill-rule="evenodd" clip-rule="evenodd" d="M171.354 9.27589C182.168 13.395 172.208 68.7868 149.106 133.016C126.004 197.246 98.5042 245.967 87.6884 241.872C76.8737 237.753 86.8339 182.361 109.936 118.132C133.038 53.9022 160.538 5.18102 171.354 9.27589Z" fill="#231F20"/>
<path fill-rule="evenodd" clip-rule="evenodd" d="M64.451 67.4956C75.2656 71.6147 73.3617 104.618 60.1807 141.256C46.9996 177.894 27.555 204.251 16.7404 200.132C5.92577 196.012 7.82962 163.009 21.0107 126.371C34.1905 89.7579 53.6363 63.3765 64.451 67.4956Z" fill="#231F20"/>
</svg>
