<svg width="395" height="390" viewBox="0 0 395 390" fill="none" xmlns="http://www.w3.org/2000/svg">
<path fill-rule="evenodd" clip-rule="evenodd" d="M378.355 151.531C389.17 155.651 389.678 181.947 379.484 210.278C369.29 238.61 352.258 258.236 341.443 254.141C330.628 250.022 330.12 223.725 340.314 195.394C350.508 167.062 367.54 147.437 378.355 151.531Z" fill="white"/>
<path fill-rule="evenodd" clip-rule="evenodd" d="M328.471 50.8532C339.285 54.9723 321.459 132.252 288.63 223.5C255.824 314.749 220.434 385.381 209.619 381.262C198.804 377.143 216.631 299.863 249.46 208.615C282.289 117.367 317.656 46.7341 328.471 50.8532Z" fill="white"/>
<path fill-rule="evenodd" clip-rule="evenodd" d="M256.329 12.1622C267.144 16.2813 254.058 80.3854 227.094 155.331C200.128 230.302 169.503 287.735 158.688 283.616C147.873 279.497 160.959 215.393 187.924 140.447C214.888 65.5008 245.514 8.06729 256.329 12.1622Z" fill="white"/>
<path fill-rule="evenodd" clip-rule="evenodd" d="M171.354 9.27607C182.169 13.3952 172.208 68.7869 149.106 133.017C126.004 197.246 98.5047 245.967 87.6888 241.872C76.8742 237.753 86.8344 182.362 109.936 118.132C133.038 53.9024 160.538 5.1812 171.354 9.27607Z" fill="white"/>
<path fill-rule="evenodd" clip-rule="evenodd" d="M64.451 67.4958C75.2656 71.6149 73.3617 104.618 60.1807 141.256C46.9996 177.894 27.555 204.251 16.7404 200.132C5.92577 196.013 7.82962 163.009 21.0107 126.372C34.1905 89.7581 53.6363 63.3767 64.451 67.4958Z" fill="white"/>
</svg>
